<svg fill="none" viewBox="0 0 107 28" xmlns="http://www.w3.org/2000/svg">
  <clipPath id="a">
    <path d="M0 0h106.1v28H0z" />
  </clipPath>
  <g clip-path="url(#a)">
    <g fill="#fffdf7">
      <path clip-rule="evenodd"
        d="M89 11.7c-.8 0-2.2.2-3.2 1.6V5.2H83V22h2.7v-1.3c1.1 1.5 2.6 1.6 3.2 1.6 3 0 5-2.3 5-5.3s-2-5.3-4.9-5.3zm-.7 2.5c1.7 0 2.8 1.2 2.8 2.8s-1.2 2.8-2.8 2.8c-1.7 0-2.8-1.2-2.8-2.8s1.1-2.8 2.8-2.8z"
        fill-rule="evenodd" />
      <path d="M71.2 22v-7.6h1.9V12h-1.9V8.6h-2.8V12h-1.1v2.4h1.1V22z" />
      <path clip-rule="evenodd"
        d="M65.7 12h-2.9v1.3c-.9-1.5-2.4-1.6-3.2-1.6-2.9 0-4.9 2.4-4.9 5.3s2 5.3 5.1 5.3c.8 0 2.1-.1 3.1-1.6V22h2.8zm-5.2 7.8c-1.7 0-2.8-1.2-2.8-2.8s1.2-2.8 2.8-2.8c1.7 0 2.8 1.2 2.8 2.8s-1.2 2.8-2.8 2.8z"
        fill-rule="evenodd" />
      <path
        d="M79.7 14.4c-.7-.6-1.3-.7-1.6-.7-.7 0-1.1.3-1.1.8 0 .3.1.6.9.9l.7.2c.126.047.262.095.404.144.757.263 1.675.582 2.096 1.256.3.4.5 1 .5 1.7 0 .9-.3 1.8-1.1 2.5s-1.8 1.1-3 1.1c-2.1 0-3.2-1-3.9-1.7l1.5-1.7c.6.6 1.4 1.2 2.2 1.2s1.4-.4 1.4-1.1c0-.6-.5-.9-.9-1l-.6-.2-.209-.089c-.646-.273-1.35-.57-1.89-1.111-.5-.5-.8-1.1-.8-1.9 0-1 .5-1.8 1-2.3.8-.6 1.8-.7 2.6-.7.7 0 1.9.1 3.2 1.1zM98.5 20.5 93.7 12H97l3.1 5.7 2.8-5.7h3.2l-8 15.3h-3.2zM47 13.7h7c0 .063.01.127.02.193a.978.978 0 0 1-.02.507c0 4.5-3.4 8.1-8 8.1s-8-3.6-8-8.1 3.6-8.1 8-8.1c2.6 0 5 1.2 6.5 3.3l-2.3 1.5C49.2 9.8 47.6 9 46 9c-2.9 0-4.9 2.5-4.9 5.4s2.1 5.3 5 5.3c2.6 0 4-1.3 4.6-3.2H47z" />
    </g>
    <path
      d="M18 14h7c0 5.2-3.7 9.6-8.5 10.8L3.3 11.6C4.4 6.7 8.8 3 14 3c3.7 0 6.9 1.8 8.9 4.5l-1.5 1.3C19.7 6.5 17 5 14 5c-3.9 0-7.3 2.5-8.5 6L17 22.5c2.9-1 5.1-3.5 5.8-6.5H18zM6.2 21.7C4.1 19.6 3 16.9 3 14.1l10.8 10.8c-2.7 0-5.5-1.1-7.6-3.2z"
      fill="#fff" />
    <path
      d="M14 0C6.3 0 0 6.3 0 14s6.3 14 14 14 14-6.3 14-14S21.7 0 14 0zM6.2 21.8C4.1 19.7 3 16.9 3 14.2L13.9 25c-2.8-.1-5.6-1.1-7.7-3.2zm10.2 2.9L3.3 11.6C4.4 6.7 8.8 3 14 3c3.7 0 6.9 1.8 8.9 4.5l-1.5 1.3C19.7 6.5 17 5 14 5c-3.9 0-7.2 2.5-8.5 6L17 22.5c2.9-1 5.1-3.5 5.8-6.5H18v-2h7c0 5.2-3.7 9.6-8.6 10.7z"
      fill="#7026b9" />
  </g>
</svg>
